<svg xmlns="http://www.w3.org/2000/svg" viewBox="0 0 84.2 84.2"><radialGradient id="a" cx="54.617" cy="-1.131" r="41.865" gradientTransform="matrix(1.0052 0 0 1.0048 -2.817 -2.78)" gradientUnits="userSpaceOnUse"><stop offset="0" stop-color="#fff"/><stop offset=".515" stop-color="#fdfdfd"/><stop offset=".551" stop-color="#fcfcfc"/><stop offset=".865" stop-color="#fbfbfb"/><stop offset=".892" stop-color="#f7f7f7"/><stop offset=".92" stop-color="#eaeaea"/><stop offset=".95" stop-color="#d5d5d5"/><stop offset=".979" stop-color="#b7b7b7"/><stop offset="1" stop-color="#9e9e9e"/></radialGradient><path fill="#164194" d="M84.2 42.1C84.2 18.8 65.3 0 42.1 0 18.8 0 0 18.8 0 42.1c0 23.2 18.8 42.1 42.1 42.1 23.2 0 42.1-18.9 42.1-42.1zm-9.6-1l-2.7 2 1 3.2-2.7-2-2.8 2 1.1-3.2-2.8-2h3.4l1.1-3.2 1 3.2h3.4zM65.3 27l1.1-3.2 1.1 3.2h3.4l-2.7 2 1 3.2-2.7-2-2.8 2 1.1-3.2-2.8-2h3.3zm-54 19.3l1.1-3.2-2.8-2H13l1-3.2 1.1 3.2h3.4l-2.7 2 1 3.2-2.7-2-2.8 2zm9.2 14l-2.7-2-2.8 2 1.1-3.2-2.8-2h3.4l1.1-3.2 1.1 3.2h3.4l-2.7 2 .9 3.2zm-1-31.2l1 3.2-2.7-2-2.8 2 1.1-3.2-2.8-2h3.4l1.1-3.2 1 3.2h3.4l-2.7 2zm11.3 41.5l-2.7-2-2.8 2 1.1-3.2-2.8-2H27l1-3.2 1.1 3.2h3.4l-2.7 2 1 3.2zm-1-51.8l1 3.2-2.7-2-2.8 2 1.1-3.2-2.8-2H27l1-3.2 1.1 3.2h3.4l-2.7 2zm15 55.6l-2.7-2-2.8 2 1.1-3.2-2.8-2H41l1-3.2 1.1 3.2h3.4l-2.7 2 1 3.2zm-1-59.4l1 3.2-2.7-2-2.8 2 1.1-3.2-2.8-2H41l1-3.2 1.1 3.2h3.4l-2.7 2zm15.1 55.6l-2.7-2-2.8 2 1.1-3.2-2.8-2h3.4l1-3.2 1.1 3.2h3.4l-2.7 2 1 3.2zm-1.1-51.8l1 3.2-2.7-2-2.8 2 1.1-3.2-2.8-2H55l1-3.2 1.1 3.2h3.4l-2.7 2zm11.3 41.5l-2.7-2-2.8 2 1.1-3.2-2.8-2h3.4l1.1-3.2 1.1 3.2h3.4l-2.7 2 .9 3.2z"/><path fill="#FFED00" d="M42.1 9.8L41 13h-3.4l2.8 2-1.1 3.3 2.8-2 2.7 2-1-3.3 2.7-2h-3.4zM28.1 13.5L27 16.8h-3.4l2.8 2-1.1 3.2 2.8-2 2.7 2-1-3.2 2.7-2h-3.4zM17.8 23.8L16.7 27l-3.4.1 2.8 2-1.1 3.2 2.8-2 2.7 2-1-3.2 2.7-2h-3.4zM16.8 46.3l-1.1-3.2 2.8-2h-3.4L14 37.8l-1 3.3H9.6l2.7 2-1 3.2 2.7-2zM18.8 55.1l-1-3.2-1.1 3.2h-3.4l2.8 2-1.1 3.2 2.8-1.9 2.7 1.9-1-3.2 2.7-2zM29.1 65.4l-1-3.3-1.1 3.3h-3.4l2.8 2-1.1 3.2 2.8-2 2.7 2-1-3.2 2.7-2zM43.1 69.1l-1-3.2-1.1 3.2h-3.4l2.8 2-1.1 3.3 2.8-2 2.7 2-1-3.2 2.7-2.1zM57.2 65.4l-1.1-3.3-1 3.3h-3.4l2.7 2-1 3.2 2.7-2 2.8 2-1.1-3.2 2.8-2zM67.4 55.1l-1-3.2-1.1 3.2h-3.4l2.8 2-1.1 3.2 2.8-1.9 2.7 1.9-1-3.2 2.7-2zM69.1 41.1h-3.4l2.7 2-1 3.2 2.8-2 2.7 2-1.1-3.2 2.8-2h-3.4l-1.1-3.3zM63.6 32.3l2.8-2 2.7 2-1-3.2 2.7-2h-3.4l-1-3.3-1.1 3.2-3.4.1 2.8 2zM56.1 13.5l-1 3.3h-3.4l2.7 2-1 3.2 2.7-2 2.8 2-1.1-3.2 2.8-2h-3.4z"/></svg>
