<svg xmlns="http://www.w3.org/2000/svg" xmlns:xlink="http://www.w3.org/1999/xlink" aria-labelledby="gHt gHd" viewBox="0 0 751 582"><title id="gHt">GDPR Cookie Consent Hero Illustration</title><desc id="gHd">GDPR cookie consent for Koken in Javascript effectively prevents setting cookies by third party scripts like ad or analytics snippets until an explicit consent is given.</desc><defs><radialGradient id="a" r="41.552%" fx="50%" fy="50%" gradientTransform="matrix(-.9998 0 0 -1 1 1)"><stop offset="0%" stop-color="#4DE9D5" stop-opacity=".756"/><stop offset="100%" stop-color="#A9FFF4" stop-opacity="0"/></radialGradient><radialGradient id="b" r="41.552%" fx="50%" fy="50%" gradientTransform="matrix(-.9998 0 0 -1 1 1)"><stop offset="0%" stop-color="#4DE9D5" stop-opacity=".756"/><stop offset="100%" stop-color="#A9FFF4" stop-opacity="0"/></radialGradient><radialGradient id="c" r="41.552%" fx="50%" fy="50%" gradientTransform="matrix(-.9998 0 0 -1 1 1)"><stop offset="0%" stop-color="#4DE9D5" stop-opacity=".756"/><stop offset="100%" stop-color="#A9FFF4" stop-opacity="0"/></radialGradient><radialGradient id="d" r="41.552%" fx="50%" fy="50%" gradientTransform="matrix(-.9998 0 0 -1 1 1)"><stop offset="0%" stop-color="#4DE9D5" stop-opacity=".756"/><stop offset="100%" stop-color="#A9FFF4" stop-opacity="0"/></radialGradient><radialGradient id="e" r="41.552%" fx="50%" fy="50%" gradientTransform="matrix(-.9998 0 0 -1 1 1)"><stop offset="0%" stop-color="#4DE9D5" stop-opacity=".756"/><stop offset="100%" stop-color="#A9FFF4" stop-opacity="0"/></radialGradient><linearGradient id="h" x1="32.131%" x2="40.92%" y1="83.48%" y2="13.544%"><stop offset="0%" stop-color="#54729A"/><stop offset="100%" stop-color="#0C4A9B" stop-opacity=".401"/></linearGradient><linearGradient id="i" x1="37.662%" x2="40.244%" y1="81.152%" y2="20.246%"><stop offset="0%" stop-color="#0F5EC6"/><stop offset="63.469%" stop-color="#0C4CA0" stop-opacity=".12"/><stop offset="100%" stop-color="#0C4A9B" stop-opacity="0"/></linearGradient><path id="g" d="M71.496 0v36.81a5.4 5.4 0 0 1-4.956 5.381L0 47.684v4.498l149.028 19.512a7.2 7.2 0 0 0 4.1-.672l22.684-11.102a13.5 13.5 0 0 0 7.552-12.743L181.38 3.798 71.496 0z"/><filter id="f" width="115.8%" height="140.4%" x="-7.9%" y="-17.4%" filterUnits="objectBoundingBox"><feOffset dy="2" in="SourceAlpha" result="shadowOffsetOuter1"/><feGaussianBlur in="shadowOffsetOuter1" result="shadowBlurOuter1" stdDeviation="4.5"/><feColorMatrix in="shadowBlurOuter1" values="0 0 0 0 0.0983827804 0 0 0 0 0.120977458 0 0 0 0 0.338089923 0 0 0 0.5 0"/></filter><filter id="j" width="111.2%" height="281.4%" x="-5.6%" y="-90.7%" filterUnits="objectBoundingBox"><feGaussianBlur in="SourceGraphic" stdDeviation="1.8"/></filter><linearGradient id="k" x1="-16.693%" x2="50%" y1="100%" y2="100%"><stop offset="0%" stop-color="#1348A0"/><stop offset="100%" stop-color="#192A73"/></linearGradient><linearGradient id="n" x1="37.515%" x2="37.515%" y1="45.179%" y2="93.379%"><stop offset="0%" stop-color="#00EFFF" stop-opacity=".8"/><stop offset="100%" stop-color="#81B4FF" stop-opacity="0"/></linearGradient><linearGradient id="o" x1="37.515%" x2="37.515%" y1="37.638%" y2="96.202%"><stop offset="0%" stop-color="#00EFFF" stop-opacity=".8"/><stop offset="100%" stop-color="#81B4FF" stop-opacity="0"/><stop offset="100%" stop-color="#81B4FF" stop-opacity="0"/></linearGradient><path id="m" d="M58.47 9.002L16.478 324.177l246.87 23.104L304.568 9z"/><filter id="l" width="104.5%" height="103.8%" x="-1.9%" y="-2.2%" filterUnits="objectBoundingBox"><feOffset dx="1" dy="-1" in="SourceAlpha" result="shadowOffsetOuter1"/><feGaussianBlur in="shadowOffsetOuter1" result="shadowBlurOuter1" stdDeviation="2"/><feColorMatrix in="shadowBlurOuter1" values="0 0 0 0 0.141176471 0 0 0 0 0.996078431 0 0 0 0 0.890196078 0 0 0 1 0"/></filter><path id="q" d="M33.446 112.461L4.5 328.387l285.262 29.69 6.691-2.973a2.7 2.7 0 0 0 1.586-2.155l27.511-236.014a2.7 2.7 0 0 0-1.345-2.659l-4.739-2.7-286.019.885z"/><filter id="p" width="109%" height="111.8%" x="-4.5%" y="-5.1%" filterUnits="objectBoundingBox"><feOffset dy="2" in="SourceAlpha" result="shadowOffsetOuter1"/><feGaussianBlur in="shadowOffsetOuter1" result="shadowBlurOuter1" stdDeviation="4.5"/><feColorMatrix in="shadowBlurOuter1" values="0 0 0 0 0.0983827804 0 0 0 0 0.120977458 0 0 0 0 0.338089923 0 0 0 0.5 0"/></filter><path id="r" d="M28.634 113.904L.368 325.576a2.7 2.7 0 0 0 2.401 3.043l284.5 29.187a2.7 2.7 0 0 0 2.956-2.364l28.87-240.859a2.7 2.7 0 0 0-2.681-3.021H31.31a2.7 2.7 0 0 0-2.677 2.342z"/><path id="s" d="M34.522 118.76L5.399 323.393l274.093 25.686 28.266-230.32z"/><path id="t" d="M46.771 9.002L4.78 324.177l246.87 23.104L292.87 9z"/><linearGradient id="u" x1="55.706%" x2="48.042%" y1="58.684%" y2="92.915%"><stop offset="0%" stop-color="#48FFEB"/><stop offset="100%" stop-color="#D5FFFA" stop-opacity="0"/></linearGradient><filter id="v" width="100.6%" height="100.5%" x="-.3%" y="-.3%" filterUnits="objectBoundingBox"><feGaussianBlur in="SourceGraphic"/></filter><linearGradient id="w" x1="50%" x2="40.957%" y1="0%" y2="98.486%"><stop offset="0%" stop-color="#12439A"/><stop offset="100%" stop-color="#2978CA" stop-opacity="0"/></linearGradient><linearGradient id="x" x1="48.213%" x2="50%" y1="126.181%" y2="33.373%"><stop offset="0%" stop-color="#0F5EC6" stop-opacity="0"/><stop offset="100%" stop-color="#0C4A9B"/></linearGradient><linearGradient id="y" x1="50%" x2="50%" y1="103.314%" y2="0%"><stop offset="0%" stop-color="#0F5EC6" stop-opacity="0"/><stop offset="100%" stop-color="#0C4A9B"/></linearGradient><path id="A" d="M1.218 19.295c5.216 2.954 63.462 29.56 67.124 30.283 3.662.721 11.449.9 23.513-5.664 12.063-6.566 8.15-12.39 8.15-12.39l-32.603-13.87-54.447-8.207S4.924 11.54 1.52 14.497c-1.625 1.412-1.99 3.843-.303 4.798"/><filter id="z" width="124.9%" height="161.8%" x="-12.4%" y="-21%" filterUnits="objectBoundingBox"><feOffset dy="4" in="SourceAlpha" result="shadowOffsetOuter1"/><feGaussianBlur in="shadowOffsetOuter1" result="shadowBlurOuter1" stdDeviation="3.5"/><feColorMatrix in="shadowBlurOuter1" values="0 0 0 0 0.0748753036 0 0 0 0 0.107609113 0 0 0 0 0.365141369 0 0 0 0.633774909 0"/></filter><path id="B" d="M98.317 26.816C67.184 1.074 35.836.113 34.463.061c0 0-8.956-.556-20.942 5.675C6.733 9.266 2.935 12.295.916 14.258c-.958.931-.453 2.569.858 2.786 9.809 1.623 35.614 4.787 62.362 27.732 1.818 1.56 4.165 2.333 6.539 2.12 3.775-.339 9.968-1.43 17.497-4.752 5.088-2.247 8.374-4.607 10.484-6.625 2.503-2.395 2.328-6.497-.34-8.703z"/><linearGradient id="C" x1="50%" x2="50%" y1="0%" y2="100%"><stop offset="0%" stop-color="#3689D6" stop-opacity="0"/><stop offset="100%" stop-color="#1950AD"/></linearGradient><radialGradient id="D" r="47.046%" fx="50%" fy="50%" gradientTransform="scale(-.9998 -1) rotate(-4.286 -13.363 13.365)"><stop offset="0%" stop-color="#4DE9D5"/><stop offset="100%" stop-color="#A9FFF4" stop-opacity="0"/></radialGradient><linearGradient id="E" x1="21.614%" x2="48.565%" y1="19.05%" y2="84.462%"><stop offset="0%" stop-color="#00BAA3"/><stop offset="100%" stop-color="#A9FFF4"/></linearGradient><linearGradient id="F" x1="55.927%" x2="29.833%" y1="79.749%" y2="32.71%"><stop offset="0%" stop-color="#00E0C4"/><stop offset="100%" stop-color="#24FEE3"/></linearGradient><linearGradient id="H" x1="50%" x2="0%" y1="81.777%" y2="29.291%"><stop offset="0%" stop-color="#00E0C4" stop-opacity="0"/><stop offset="100%" stop-color="#24FEE3"/></linearGradient><path id="G" d="M36.895 51.282l36.69-23.527 43.88 21.664-4.302 36.248c-1.434 11.777-8.75 22.483-20.08 28.907l-21.936 10.762-17.154-12.812c-9.899-9.06-13.538-20.063-14.398-32.451l-2.7-28.79z"/><filter id="I" width="150.6%" height="130.8%" x="-25.1%" y="-10.9%" filterUnits="objectBoundingBox"><feOffset dy="2" in="SourceAlpha" result="shadowOffsetOuter1"/><feGaussianBlur in="shadowOffsetOuter1" result="shadowBlurOuter1" stdDeviation="2"/><feColorMatrix in="shadowBlurOuter1" result="shadowMatrixOuter1" values="0 0 0 0 0 0 0 0 0 0.520355017 0 0 0 0 0.457352392 0 0 0 1 0"/><feMerge><feMergeNode in="shadowMatrixOuter1"/><feMergeNode in="SourceGraphic"/></feMerge></filter><linearGradient id="J" x1="74.713%" x2="77.768%" y1="111.486%" y2="109.264%"><stop offset="0%" stop-color="#1348A0"/><stop offset="100%" stop-color="#192A73"/></linearGradient><linearGradient id="M" x1="81.07%" x2="-43.267%" y1="34.927%" y2="61.282%"><stop offset="0%" stop-color="#0A4A9D"/><stop offset="100%" stop-color="#0F5EC6"/></linearGradient><path id="L" d="M181.495 106.49L0 133.482l310.127 39.26 96.618-39.26z"/><filter id="K" width="113.8%" height="184.5%" x="-6.9%" y="-25.7%" filterUnits="objectBoundingBox"><feOffset dy="11" in="SourceAlpha" result="shadowOffsetOuter1"/><feGaussianBlur in="shadowOffsetOuter1" result="shadowBlurOuter1" stdDeviation="7.5"/><feColorMatrix in="shadowBlurOuter1" values="0 0 0 0 0 0 0 0 0 0 0 0 0 0 0 0 0 0 0.5 0"/></filter><linearGradient id="N" x1="81.07%" x2="0%" y1="34.927%" y2="34.927%"><stop offset="0%" stop-color="#2C7EEC"/><stop offset="100%" stop-color="#0F5EC6"/></linearGradient><linearGradient id="O" x1="40.314%" x2="124.226%" y1="27.888%" y2="55.101%"><stop offset="0%" stop-color="#00EFFF" stop-opacity=".8"/><stop offset="100%" stop-color="#81B4FF" stop-opacity="0"/></linearGradient><linearGradient id="Q" x1="37.515%" x2="46.456%" y1="45.179%" y2="122.232%"><stop offset="0%" stop-color="#1CECFF"/><stop offset="100%" stop-color="#81B4FF" stop-opacity="0"/></linearGradient><path id="P" d="M180.875 109.762c-20.033-2.999-27.232-13.795-21.597-32.389l-141.28 4.499c-5.4 32.989 5.099 51.282 31.495 54.881 19.47 3.129 53.248 7.567 101.333 13.314 23.255 2.78 65.667 7.639 127.236 14.577l85.489-33.29-182.676-21.592z"/><radialGradient id="R" r="47.046%" fx="50%" fy="50%" gradientTransform="scale(-.9998 -1) rotate(-4.286 -13.363 13.365)"><stop offset="0%" stop-color="#4DE9D5"/><stop offset="100%" stop-color="#A9FFF4" stop-opacity="0"/></radialGradient><linearGradient id="S" x1="44.913%" x2="57.296%" y1="40.424%" y2="46.975%"><stop offset="0%" stop-color="#0F5ABB"/><stop offset="100%" stop-color="#1A2A73"/></linearGradient><path id="T" d="M62.939 7.086L9.304 82.446l-7.252-5.15 53.635-75.36C57.056-.097 59.93-.504 61.981.852a4.795 4.795 0 0 1 1.916 3.388c-.137.949-.41 2.033-.958 2.846z"/></defs><g fill="none" fill-rule="evenodd"><g transform="translate(103.687 -1)"><ellipse cx="490.883" cy="4.948" fill="url(#a)" rx="4.949" ry="4.948"/><ellipse cx="526.429" cy="143.051" fill="url(#b)" opacity=".433" rx="8.999" ry="8.997"/><ellipse cx="639.999" cy="294.997" fill="url(#b)" opacity=".431" rx="8.999" ry="8.997"/><ellipse cx="491.333" cy="570.404" fill="url(#c)" rx="4.499" ry="4.498"/><ellipse cx="474.686" cy="580.751" fill="url(#d)" rx="2.25" ry="2.249"/><ellipse cx="636.6" cy="325.599" fill="url(#e)" opacity=".431" rx="3.6" ry="3.599"/><ellipse cx="110.685" cy="367.074" fill="url(#b)" opacity=".609" rx="8.999" ry="8.997"/><ellipse cx="8.999" cy="484.034" fill="url(#b)" opacity=".609" rx="8.999" ry="8.997"/></g><g transform="translate(298.96 385.867)"><use fill="#000" filter="url(#f)" xlink:href="#g"/><use fill="#043F90" xlink:href="#g"/><use fill="url(#h)" xlink:href="#g"/><use fill="url(#i)" xlink:href="#g"/></g><path fill="#043F90" d="M70.266 42.876l92.847 2.356a1.8 1.8 0 0 1 1.754 1.8v.044a1.754 1.754 0 0 1-1.798 1.753L70.22 46.474a1.8 1.8 0 0 1-1.754-1.8v-.044a1.754 1.754 0 0 1 1.799-1.754z" filter="url(#j)" opacity=".382" transform="rotate(5 -4152.76 3662.452)"/><path fill="url(#k)" d="M155.679 69.276v4.499l21.967-13.321a12.6 12.6 0 0 0 6.042-11.563L180.847 3.6h-4.789l3.584 45.268a7.2 7.2 0 0 1-3.184 6.56l-20.78 13.85z" transform="translate(298.96 385.867)"/><path fill="#1348A0" d="M298.96 434.45v3.715l155.68 21.622v-4.643z"/><g transform="translate(273.764 52.082)"><use fill="#000" filter="url(#l)" xlink:href="#m"/><use fill="url(#n)" xlink:href="#m"/><use fill="url(#o)" xlink:href="#m"/></g><g transform="translate(273.764 52.082)"><use fill="#000" filter="url(#p)" xlink:href="#q"/><use fill="#192A73" xlink:href="#q"/></g><use fill="#1348A0" transform="translate(273.764 52.082)" xlink:href="#r"/><use fill="#2C7EEC" transform="translate(273.764 52.082)" xlink:href="#s"/><g transform="translate(285.463 52.082)"><use fill="url(#n)" xlink:href="#t"/><use fill="url(#o)" xlink:href="#t"/><path stroke="url(#u)" stroke-width="1.8" d="M257.555 346.381L300.559.214 43.81 3.834 0 322.273" filter="url(#v)"/><path fill="url(#w)" d="M52.193 25.191h53.093L62.99 351.78 9.9 346.381z" opacity=".256"/><ellipse cx="51.743" cy="79.623" fill="#00E7F8" opacity=".345" rx="1.35" ry="1.35"/><path stroke="#00E7F8" stroke-linecap="round" stroke-width="2.7" d="M57.45 69.411h21.218m-21.976 9.897h28.049" opacity=".345"/><path fill="#0F9BCD" d="M277.162 54.881l-8.099 64.778-167.238-5.38 8.146-61.559z" opacity=".218"/><path fill="#00FFDF" d="M48.593 48.583h53.993l-1.8 14.395-53.992.09z" opacity=".338"/><path fill="url(#x)" d="M112.624 35.088h52.054l-2.227 12.596h-51.766z" opacity=".11"/><path fill="#00FFDF" d="M201.515 60.28h25.254l-.842 6.732-25.254.043z" opacity=".218"/><path stroke="#00FFDF" stroke-width=".9" d="M230.708 60.73l-.73 5.874 24.348-.04.73-5.835h-24.348z" opacity=".147"/><g fill="#03DFE9" transform="translate(259.165 62.978)"><ellipse cx=".9" cy=".9" rx="1" ry="1"/><ellipse cx="6.299" cy=".9" rx="1" ry="1"/><ellipse cx="3.6" cy=".9" rx="1" ry="1"/></g><ellipse cx="52.643" cy="69.726" fill="#00E7F8" opacity=".345" rx="1.35" ry="1.35"/><path fill="#0F9BCD" d="M268.164 129.556l-8.1 73.774-169.018-9.603 9.253-69.992z" opacity=".218"/><g fill="#03DFE9" transform="translate(250.166 141.252)"><ellipse cx=".9" cy=".9" rx="1" ry="1"/><ellipse cx="6.299" cy=".9" rx="1" ry="1"/><ellipse cx="3.6" cy=".9" rx="1" ry="1"/></g><path stroke="#0EC4E6" stroke-linecap="round" stroke-width="2.7" d="M58.492 55.016h23.492" opacity=".649"/><ellipse cx="53.543" cy="55.331" fill="#0DC5E5" opacity=".649" rx="1.35" ry="1.35"/><path stroke="#0F9BCD" stroke-linecap="round" stroke-width="2.07" d="M124.186 136.431l36.575.638" opacity=".4"/><ellipse cx="112.975" cy="139.132" fill="#07C2E4" rx="4.949" ry="5.848" transform="rotate(10 112.975 139.132)"/><path stroke="#0F9BCD" stroke-linecap="round" stroke-width="2.07" d="M122.385 142.831l25.193.44m-42.065 14.239l63.9 1.754" opacity=".4"/><path stroke="#0F9BCD" stroke-linecap="round" stroke-width="2.07" d="M104.613 163.79l44.014 1.207" opacity=".14"/><path stroke="#0F9BCD" stroke-linecap="round" stroke-width="2.07" d="M103.713 174.605l63.9 1.753" opacity=".4"/><path stroke="#0F9BCD" stroke-linecap="round" stroke-width="2.07" d="M102.813 180.883l44.015 1.208" opacity=".14"/><path fill="#00FFDF" d="M192.516 137.653h25.254l-.9 7.197-25.196-.422z" opacity=".17"/><path stroke="#00FFDF" stroke-width=".9" d="M221.712 138.103l-.738 6.315 24.292.867.798-7.182h-24.352z" opacity=".196"/><path fill="url(#y)" d="M89.223 204.977l168.142 10.05-8.999 78.272-169.12-14.053z" opacity=".123"/><path fill="#00FFDF" d="M180.198 218.682l25.193 1.762-1.4 7.117-25.105-2.179z" opacity=".167"/><g fill="#03DFE9" opacity=".275" transform="translate(237.568 225.823)"><ellipse cx=".9" cy=".9" rx="1" ry="1"/><ellipse cx="6.299" cy=".9" rx="1" ry="1"/><ellipse cx="3.6" cy=".9" rx="1" ry="1"/></g><path stroke="#00FFDF" stroke-width=".9" d="M208.682 220.96l-1.174 6.248 24.234 1.677 1.225-6.227-24.285-1.698z" opacity=".167"/><path stroke="#0F9BCD" stroke-linecap="round" stroke-width="2.07" d="M114.31 217.66l36.53 1.914" opacity=".4"/><ellipse cx="101.277" cy="218.946" fill="#25A8E1" rx="4.949" ry="5.848" transform="rotate(10 101.277 218.946)"/><path stroke="#0F9BCD" stroke-linecap="round" stroke-width="2.07" d="M111.602 224.264l25.162 1.318M94.06 241.636l47.66 2.746" opacity=".4"/><path stroke="#0F9BCD" stroke-linecap="round" stroke-width="2.07" d="M93.013 248.672l32.827 1.891" opacity=".221"/><path stroke="#0F9BCD" stroke-linecap="round" stroke-width="2.07" d="M91.36 260.53l47.66 2.745" opacity=".4"/><path stroke="#0F9BCD" stroke-linecap="round" stroke-width="2.07" d="M90.314 267.566l32.827 1.891" opacity=".221"/><path stroke="#00E7F8" stroke-linecap="round" stroke-width=".5" d="M114.284 72.875l152.08 2.7"/><g transform="translate(113.385 55.78)"><path stroke="#0F9BCD" stroke-linecap="round" stroke-width="2.07" d="M19.8 4.177l36.575.638M18.9 10.576l25.192.44" opacity=".346"/><ellipse cx="9.95" cy="7.042" fill="#07C2E4" rx="4.949" ry="5.848" transform="rotate(10 9.95 7.042)"/><path stroke="#0F9BCD" stroke-linecap="round" stroke-width="2.07" d="M2.704 25.75l53.525.935" opacity=".346"/><path stroke="#0F9BCD" stroke-linecap="round" stroke-width="2.07" d="M1.803 32.202l36.867.644" opacity=".152"/><path stroke="#0F9BCD" stroke-linecap="round" stroke-width="2.07" d="M.904 42.575l53.525.934" opacity=".346"/><path stroke="#0F9BCD" stroke-linecap="round" stroke-width="2.07" d="M.003 49.926l36.867.643" opacity=".152"/></g><path stroke="#00E7F8" stroke-linecap="round" stroke-width=".5" d="M103.486 149.349l153.88 3.599"/><path stroke="#00E7F8" stroke-linecap="round" stroke-width=".5" d="M93.587 228.522l152.98 8.997" opacity=".508"/></g><g transform="scale(-1 1) rotate(9 -3287.803 -3340.26)"><use fill="#000" filter="url(#z)" xlink:href="#A"/><use fill="#192B74" xlink:href="#A"/></g><path fill="#0D50A8" d="M564.071 491.792c-4.657 3.726-56.946 38.58-61.137 40.316-4.19 1.736-11.094 2.67-23.958-1.935-12.864-4.603-9.935-10.96-9.935-10.96l29.826-18.754 52.147-16.56s8.42.961 12.306 3.285c1.971 1.178 2.318 3.354.751 4.608"/><use fill="#1348A0" transform="scale(-1 1) rotate(9 -3287.803 -3340.26)" xlink:href="#B"/><path fill="#192A73" d="M544.982 483.61c-13.518-4.515-22.759-2.458-22.759-2.458-.397.078-3.226.618-7.71 2.054 8.289-3.37 13.91-4.443 14.468-4.554 0 0 8.76-1.949 21.571 2.33 7.257 2.425 11.483 4.822 13.784 6.445 1.092.77.849 2.467-.412 2.886-1.048.348-2.29.747-3.697 1.217a1.696 1.696 0 0 0-.704-1.121c-2.428-1.713-6.886-4.242-14.541-6.799"/><path fill="url(#C)" d="M98.317 26.816A123.767 123.767 0 0 0 80.13 14.313c-2.731 3.36-6.673 6.74-12.352 9.176-9.029 3.874-18.778 5.524-25.633 6.225 7.033 3.729 14.475 8.614 21.991 15.062 1.818 1.559 4.166 2.333 6.538 2.12 3.776-.34 9.97-1.43 17.498-4.753 5.088-2.246 8.373-4.606 10.483-6.623 2.504-2.395 2.33-6.498-.338-8.704" transform="scale(-1 1) rotate(9 -3287.803 -3340.26)"/><path fill="#08347F" d="M469.494 523.481l.179.27a5.954 5.954 0 0 0 1.123 1.204c.202.167.433.322.658.481.475.329 1.037.69 1.677 1.062a35.35 35.35 0 0 0 4.815 2.286c1.906.745 4.145 1.445 6.574 2.02a61.591 61.591 0 0 0 8.016 1.398 54.07 54.07 0 0 0 4.44.29c.76.022 1.528.011 2.305-.009.78-.034 1.543-.042 2.396-.174a9.49 9.49 0 0 0 4.587-2.129c.33-.28.645-.581.935-.907l.814-.916 1.628-1.839a131.529 131.529 0 0 1 6.988-6.995 146.367 146.367 0 0 1 7.485-6.48 144.33 144.33 0 0 1 7.674-5.742c2.554-1.767 5.067-3.417 7.527-4.826 2.446-1.42 4.9-2.504 7.182-3.496a336.094 336.094 0 0 1 11.15-4.533l4.272-1.62.005-.003a.34.34 0 0 0-.23-.64l-4.325 1.5c-2.74.986-6.671 2.357-11.301 4.259-2.308.959-4.827 2.023-7.357 3.437a92.197 92.197 0 0 0-7.687 4.792 145.719 145.719 0 0 0-7.782 5.757 148.39 148.39 0 0 0-7.598 6.508c-2.46 2.283-4.805 4.685-7.056 7.132l-1.618 1.848-.8.91a7.914 7.914 0 0 1-.797.783 8.14 8.14 0 0 1-3.918 1.846c-.687.113-1.475.135-2.223.17a52.593 52.593 0 0 1-6.58-.182 60.241 60.241 0 0 1-7.877-1.238c-2.437-.546-4.596-1.162-6.496-1.84a34.421 34.421 0 0 1-4.749-2.099c-1.25-.706-2.24-1.29-2.748-1.799a5.171 5.171 0 0 1-.56-.627l-.172-.238-.006-.01a.335.335 0 0 0-.47-.076.342.342 0 0 0-.08.465"/><path fill="#24FEE3" d="M469.31 522.326l.18.27a5.993 5.993 0 0 0 1.123 1.204c.202.167.433.322.658.481.475.329 1.037.69 1.678 1.062a35.35 35.35 0 0 0 4.814 2.286c1.906.744 4.145 1.445 6.574 2.021a61.7 61.7 0 0 0 8.016 1.397 54.07 54.07 0 0 0 4.44.29c.76.022 1.528.011 2.305-.009.78-.034 1.543-.042 2.396-.174a9.49 9.49 0 0 0 4.587-2.129c.33-.28.645-.581.935-.906l.814-.917 1.628-1.839a131.529 131.529 0 0 1 6.988-6.995 146.367 146.367 0 0 1 7.485-6.48 144.33 144.33 0 0 1 7.674-5.742c2.554-1.767 5.067-3.416 7.527-4.826 2.446-1.42 4.9-2.504 7.182-3.496a336.094 336.094 0 0 1 11.15-4.533l4.272-1.62.005-.003a.34.34 0 0 0-.23-.64l-4.325 1.5c-2.74.986-6.671 2.357-11.301 4.259-2.308.958-4.827 2.023-7.357 3.437a92.197 92.197 0 0 0-7.687 4.792 145.719 145.719 0 0 0-7.782 5.757 148.39 148.39 0 0 0-7.598 6.508c-2.46 2.283-4.805 4.685-7.056 7.132l-1.618 1.848-.8.91a7.914 7.914 0 0 1-.797.783 8.14 8.14 0 0 1-3.918 1.846c-.687.113-1.475.134-2.223.17a52.593 52.593 0 0 1-6.58-.182 60.241 60.241 0 0 1-7.877-1.239c-2.437-.545-4.596-1.161-6.496-1.839a34.421 34.421 0 0 1-4.749-2.1c-1.25-.705-2.24-1.289-2.748-1.798a5.13 5.13 0 0 1-.56-.627l-.172-.238-.006-.01a.335.335 0 0 0-.47-.076.342.342 0 0 0-.08.465"/><g transform="rotate(8 -892.767 3639.642)"><ellipse cx="76.94" cy="76.924" fill="url(#D)" opacity=".919" rx="76.94" ry="76.924"/><path fill="url(#E)" fill-rule="nonzero" d="M40.495 51.417L73.79 27.89l5.177-.25 43.755 20.772-4.177 37.14c-1.435 11.777-8.624 23.374-19.955 29.798l-21.045 10.636-6.455-.515-13.498-12.812c-9.898-9.06-13.537-20.063-14.398-32.452l-2.7-28.79z"/><g fill-rule="nonzero"><use fill="url(#F)" xlink:href="#G"/><use fill="url(#H)" xlink:href="#G"/></g><g fill="#FFF" filter="url(#I)" transform="rotate(-1 3292.595 -3787.644)"><path d="M0 11.696h26.996L0 45.884z"/><path d="M0 0h27.896L0 35.088z"/></g></g><g transform="translate(11 352.579)"><path fill="url(#J)" d="M151.799 123.258L0 133.675c0 2.46 1.83 4.537 4.27 4.846l300.946 38.097a18.9 18.9 0 0 0 9.496-1.244l88.085-35.831a6.334 6.334 0 0 0 3.948-5.868l-254.946-10.417z"/><use fill="#000" filter="url(#K)" xlink:href="#L"/><use fill="url(#M)" xlink:href="#L"/><ellipse cx="339.704" cy="150.248" fill="#192A73" rx="4.949" ry="1.799"/><ellipse cx="339.254" cy="150.248" fill="#3690F0" rx="4.499" ry="1.799"/><path fill="url(#N)" d="M180.544 109.762l-153.19 23.03 251.608 31.852 84.329-32.984z"/><g opacity=".713"><use fill="url(#O)" xlink:href="#P"/><use fill="url(#Q)" xlink:href="#P"/></g><ellipse cx="156.579" cy="46.784" fill="url(#R)" opacity=".39" rx="27.896" ry="27.89"/><path fill="#0F9BCD" fill-rule="nonzero" d="M29.829 97.808a1.853 1.853 0 1 1-.16-3.702l59.288-1.945c1.022-.044 1.93.362 1.93 1.154 0 .791-.748 1.269-1.77 1.313l-59.288 3.18zm2.613 11.948a1.705 1.705 0 1 1-.282-3.397l49.164-3.501c.938-.078 1.558.568 1.558.995 0 .427-.62 1.2-1.558 1.278l-48.882 4.625z"/><path stroke="#0F9BCD" stroke-linecap="round" stroke-width="1.8" d="M39.595 122.358l56.692-7.198" opacity=".346"/><path stroke="#0F9BCD" stroke-linecap="round" stroke-width="1.8" d="M71.99 131.355l108.154-17.765" opacity=".589"/><path stroke="#0F9BCD" stroke-linecap="round" stroke-width="1.8" d="M90.888 134.054l105.192-18.146m-90.794 19.945l102.588-18.862m-91.79 20.662l26.997-5.398" opacity=".346"/><path stroke="#0F9BCD" stroke-linecap="round" stroke-width="1.8" d="M139.481 139.452l98.108-20.426m-79.21 22.226l92.684-20.526m-74.687 23.224l89.473-21.308m-70.575 23.108l71.09-17.994m-32.396 22.492l75.654-22.293m-51.357 24.993l69.604-22.667M214.17 148.45l80.691-22.332" opacity=".629"/><path stroke="#0F9BCD" stroke-linecap="round" stroke-width=".9" d="M52.193 129.556l119.684-18.894" opacity=".346"/></g><g fill-rule="nonzero"><use fill="url(#S)" transform="rotate(-60 356.746 98.7)" xlink:href="#T"/><path fill="#24FEE3" d="M168.688 400.321l.26-8.855-8.086 3.705 6.829 5.522z"/><path fill="#24FEE2" d="M168.728 401.608c-.255.17-.49.034-.656-.22l-.264-.627c-.166-.254-.03-.491.225-.66.254-.17.489-.034.655.22l.264.627c.05.186-.039.61-.224.66z"/><path fill="#24FEE3" d="M141.028 351.735l-.632-1.366c1.325.6 2.887.477 4.686-.369 1.8-.846 2.903-1.956 3.31-3.331l.632 1.366c-.229 1.245-1.242 2.323-3.042 3.234-1.8.91-3.45 1.066-4.954.466zm-8.248-17.895l-.68-1.343c1.346.554 2.903.376 4.672-.532 1.768-.908 2.832-2.056 3.19-3.445l.68 1.343c-.185 1.253-1.16 2.366-2.927 3.339-1.766.973-3.411 1.185-4.935.638z"/></g></g></svg>
