<svg xmlns="http://www.w3.org/2000/svg" xmlns:xlink="http://www.w3.org/1999/xlink" viewBox="-1350 -900 2700 1200" style="max-width:100%"><title>GDPR Cookie Consent banner</title><defs><path id="b" d="M0-100l22.5 69.1H95L36.3 11.8l22.5 69.1L0 38.2l-58.8 42.7 22.5-69.1-58.8-42.7h72.6z"/><linearGradient id="a" x1="381.9" x2="387.8" y1="-310" y2="-148" gradientTransform="matrix(6.30631 0 0 6.74163 -2437.7 1430)" gradientUnits="userSpaceOnUse"><stop offset="0" stop-color="#edf4fd" stop-opacity=".5"/><stop offset="1" stop-color="#175bb3" stop-opacity="0"/></linearGradient></defs><path fill="#039" stroke-width="0" d="M-1339.8-798.9h2701.2V213.7h-2701.2z"/><g fill="#eee" filter="drop-shadow(.1em .1em .05em rgba(24,24,24,.7))" font-family="sans-serif" font-size="14em"><text x="800" transform="matrix(.66176 0 0 .65705 -831.5 -271.3)">GDPR Cookie Consent</text><text x="800" y="250" transform="matrix(.66176 0 0 .65705 -831.5 -271.3)">For Koken</text></g><path fill="url(#a)" d="M7.6-714.6c-382 0-691.6 331.2-691.6 739.5 0 26 1.3 51.6 3.8 77 337.4 130 853 224.6 1379.5-73.5v-3.5c0-408.3-309.7-739.5-691.6-739.5z" transform="matrix(.66176 0 0 .65705 -831.5 -271.3)"/><g fill="#eee" stroke-width="1.9"><path d="M-931.5-556.7c-29.4 0-53 24.2-53 54.3v114.9h56.7V-452c0-30.1 23.7-54.3 53.1-54.3h113.8a53.6 53.6 0 0 1 53 54.3v64.4h54.4v-114.9c0-30-23.7-54.3-53-54.3h-225zM-990.8-360.2a53.6 53.6 0 0 0-53 54.3v68.3c0 30 23.6 54.3 53 54.3h338.6a53.3 53.3 0 0 0 52.2-44.8h-51.7c-29.4 0-53-15.5-53-34.8 0-19.2 23.6-34.9 53-34.9h52.6v-8c0-30.2-23.7-54.4-53.1-54.4h-338.6zM-990.8-151.2a53.6 53.6 0 0 0-53 54.3v68.2c0 30.1 23.6 54.3 53 54.3h338.6A53.3 53.3 0 0 0-600-19h-51.7c-29.4 0-53-15.5-53-34.8 0-19.3 23.6-34.9 53-34.9h52.6v-8.1c0-30-23.7-54.3-53.1-54.3h-338.6z"/></g><g fill="#fc0" stroke-width="0" transform="matrix(.66176 0 0 .65705 -831.5 -271.3)"><use width="100%" height="100%" y="-600" xlink:href="#b"/><use width="100%" height="100%" x="300" y="-519.6" xlink:href="#b"/><use width="100%" height="100%" x="519.6" y="-300" xlink:href="#b"/><use width="100%" height="100%" x="600" xlink:href="#b"/><use width="100%" height="100%" x="519.6" y="300" xlink:href="#b"/><use width="100%" height="100%" x="300" y="519.6" xlink:href="#b"/><use width="100%" height="100%" y="600" xlink:href="#b"/><use width="100%" height="100%" x="-300" y="519.6" xlink:href="#b"/><use width="100%" height="100%" x="-519.6" y="300" xlink:href="#b"/><use width="100%" height="100%" x="-600" xlink:href="#b"/><use width="100%" height="100%" x="-519.6" y="-300" xlink:href="#b"/><use width="100%" height="100%" x="-300" y="-519.6" xlink:href="#b"/></g></svg>
