<svg id="GDPR_Banner" xmlns="http://www.w3.org/2000/svg" xmlns:xlink="http://www.w3.org/1999/xlink" viewBox="0 0 400 100"><defs><linearGradient id="B" gradientUnits="userSpaceOnUse" x1="0%" y1="0%" x2="0%" y2="100%"><stop stop-color="#1d82db" offset="0"/><stop stop-color="#039" offset="80%"/></linearGradient><text id="F" y="90" textLength="175" lengthAdjust="spacingAndGlyphs">Compliance Made easy</text><text id="G" y="54" textLength="33" lengthAdjust="spacingAndGlyphs">GDPR</text><svg id="S" viewBox="0 0 2103056 2453296"><g fill="#1d82db"><path d="M1057984 96610C638145 387263 82671 419559 82671 419559v807383c0 865509 975313 1130332 975313 1130332s962402-264823 962402-1130332V419559s-542560-32296-962402-322949z"/><g fill="none" stroke="#1d82db"><path stroke-width="26273" d="M1058270 46688C619887 350175 39880 383899 39880 383899v843043c0 903736 1018390 1180255 1018390 1180255s1004906-276519 1004906-1180255V383899s-566522-33724-1004906-337211z"/><path d="M1058515 3992C604272 318460 3284 353403 3284 353403v873539c0 936429 1055231 1222951 1055231 1222951s1041257-286522 1041257-1222951V353403S1512757 318460 1058515 3992z"/></g></g><circle cx="1060000" cy="1250000" r="29%" fill="#039" stroke="#eee" stroke-width="14000"/><path fill="#fc0" d="M1051527 644937l-19200 59093h-62132l50265 36519-19198 59094 50265-36520 50268 36520-19201-59094 50268-36519h-62135l-19200-59093zm337894 1016584l-50268 36522 19201 59093-50268-36521-50268 36521 19203-59093-50270-36522h62135l19200-59091 19201 59091h62134zm187816-187813l-50270 36521 19200 59094-50265-36522-50267 36522 19200-59094-50268-36521h62135l19200-59094 19201 59094h62134zm-81335-572212l19201 59093h62134l-50270 36522 19200 59093-50265-36521-50267 36521 19200-59093-50268-36522h62135l19200-59093zm-269151-128723h62135l19200-59093 19201 59093h62134l-50268 36522 19201 59093-50268-36521-50268 36521 19203-59093-50270-36522zm388162 539990l-50268-36521-50265 36521 19201-59093-50268-36521h62132l19200-59094 19201 59094h62134l-50267 36521 19200 59093zm-901280 348758l50270 36522-19203 59093 50268-36521 50267 36521-19200-59093 50268-36522h-62135l-19200-59091-19198 59091h-62137zm-187814-187813l50268 36521-19200 59094 50267-36522 50268 36522-19201-59094 50268-36521h-62134l-19201-59094-19203 59094h-62132zm81335-572212l-19203 59093h-62132l50268 36522-19200 59093 50267-36521 50268 36521-19201-59093 50268-36522h-62134l-19201-59093zm269149-128723h-62135l-19200-59093-19201 59093h-62134l50270 36522-19203 59093 50268-36521 50267 36521-19200-59093 50268-36522zm-388162 539990l50268-36521 50267 36521-19200-59093 50267-36521h-62134l-19200-59094-19201 59094h-62134l50267 36521-19200 59093zm513121 513119l50265-36522 50268 36522-19201-59094 50268-36521h-62135l-19200-59093-19200 59093h-62132l50265 36521-19198 59094z"/></svg><style>#S,text{--ds:drop-shadow(.1em .1em .05em rgba(24,24,24,.7));-webkit-filter:var(--ds);filter:var(--ds)}text{fill:#eee;font-family:sans-serif;font-size:1em}#M{font-size:.4em}#F{text-anchor:middle}</style></defs><rect rx="10" ry="10" height="100%" width="100%" fill="url(#B)"/><text y="20" transform="translate(120 25)">GDPR Cookie Consent</text><text y="40" transform="translate(120 25)">For Koken</text><use xlink:href="#S" x="-150"/><use xlink:href="#S" x="150"/><g id="M"><use xlink:href="#G" x="34"/><use xlink:href="#G" x="334"/><use xlink:href="#F" x="200"/></g></svg>
