<svg id="GDPR_Banner" xmlns="http://www.w3.org/2000/svg" xmlns:xlink="http://www.w3.org/1999/xlink" viewBox="0 0 400 100" xml:space="preserve">
	<title>GDPR Cookie Consent banner</title>
	<defs>
		<linearGradient id="bkgrd" gradientUnits="userSpaceOnUse" x1="0%" y1="0%" x2="0%" y2="100%"><stop stop-color="#1d82db" offset="0"/><stop stop-color="#039" offset="80%"/></linearGradient>
		<text id="foot" y="90" textLength="175" lengthAdjust="spacingAndGlyphs">Compliance Made easy</text>
		<text id="gdpr" y="54" textLength="33" lengthAdjust="spacingAndGlyphs">GDPR</text>
		<svg id="shield" viewBox="0 0 2103056 2453296"><g fill="#1d82db"><path d="M1057984 96610c-419839,290653 -975313,322949 -975313,322949l0 807383c0,865509 975313,1130332 975313,1130332 0,0 962402,-264823 962402,-1130332l0 -807383c0,0 -542560,-32296 -962402,-322949z"/><g fill="none" stroke="#1d82db"><path stroke-width="26273.3" d="M1058270 46688c-438383,303487 -1018390,337211 -1018390,337211l0 843043c0,903736 1018390,1180255 1018390,1180255 0,0 1004906,-276519 1004906,-1180255l0 -843043c0,0 -566522,-33724 -1004906,-337211z"/><path d="M1058515 3992c-454243,314468 -1055231,349411 -1055231,349411l0 873539c0,936429 1055231,1222951 1055231,1222951 0,0 1041257,-286522 1041257,-1222951l0 -873539c0,0 -587015,-34943 -1041257,-349411z"/></g></g><circle cx="1060000" cy="1250000" r="29%" fill="#039" stroke="#eee" stroke-width="14000"/><path fill="#fc0" d="M1051527 644937l-19200 59093 -62132 0 50265 36519 -19198 59094 50265 -36520 50268 36520 -19201 -59094 50268 -36519 -62135 0 -19200 -59093zm337894 1016584l-50268 36522 19201 59093 -50268 -36521 -50268 36521 19203 -59093 -50270 -36522 62135 0 19200 -59091 19201 59091 62134 0zm187816 -187813l-50270 36521 19200 59094 -50265 -36522 -50267 36522 19200 -59094 -50268 -36521 62135 0 19200 -59094 19201 59094 62134 0zm-81335 -572212l19201 59093 62134 0 -50270 36522 19200 59093 -50265 -36521 -50267 36521 19200 -59093 -50268 -36522 62135 0 19200 -59093zm-269151 -128723l62135 0 19200 -59093 19201 59093 62134 0 -50268 36522 19201 59093 -50268 -36521 -50268 36521 19203 -59093 -50270 -36522zm388162 539990l-50268 -36521 -50265 36521 19201 -59093 -50268 -36521 62132 0 19200 -59094 19201 59094 62134 0 -50267 36521 19200 59093zm-901280 348758l50270 36522 -19203 59093 50268 -36521 50267 36521 -19200 -59093 50268 -36522 -62135 0 -19200 -59091 -19198 59091 -62137 0zm-187814 -187813l50268 36521 -19200 59094 50267 -36522 50268 36522 -19201 -59094 50268 -36521 -62134 0 -19201 -59094 -19203 59094 -62132 0zm81335 -572212l-19203 59093 -62132 0 50268 36522 -19200 59093 50267 -36521 50268 36521 -19201 -59093 50268 -36522 -62134 0 -19201 -59093zm269149 -128723l-62135 0 -19200 -59093 -19201 59093 -62134 0 50270 36522 -19203 59093 50268 -36521 50267 36521 -19200 -59093 50268 -36522zm-388162 539990l50268 -36521 50267 36521 -19200 -59093 50267 -36521 -62134 0 -19200 -59094 -19201 59094 -62134 0 50267 36521 -19200 59093zm513121 513119l50265 -36522 50268 36522 -19201 -59094 50268 -36521 -62135 0 -19200 -59093 -19200 59093 -62132 0 50265 36521 -19198 59094z"/></svg>
		<style>text,#shield{--ds:drop-shadow(.1em .1em .05em rgba(24,24,24,.7));-webkit-filter:var(--ds);filter:var(--ds)}text{fill:#eee;font-family:sans-serif;font-size:1em}#s_txt{font-size:.4em}#foot{text-anchor:middle}</style>
	</defs>
	<rect x="0" y="0" rx="10" ry="10" height="100%" width="100%" fill="url(#bkgrd)"/>
	<g id="m_txt" transform="translate(120,25)">
		<text y="20">GDPR Cookie Consent</text>
		<text y="40">For Koken</text>
	</g>
	<g>
		<use xlink:href="#shield" x="-150" y="0"/>
		<use xlink:href="#shield" x="150" y="0"/>
	</g>
	<g id="s_txt">
		<use xlink:href="#gdpr" x="34"/>
		<use xlink:href="#gdpr" x="334"/>
		<use xlink:href="#foot" x="200"/>
	</g>
</svg>
